<svg width="30" height="31" viewBox="0 0 30 31" fill="none" xmlns="http://www.w3.org/2000/svg">
<g id="Exodus Landing Page">
<g id="Exodus Landing Page_2">
<path id="Exodus Landing Page_3" fill-rule="evenodd" clip-rule="evenodd" d="M16.0635 23.3197V15.1589H18.3162L18.6147 12.3466H16.0635L16.0673 10.9391C16.0673 10.2056 16.137 9.81257 17.1905 9.81257H18.5988V7H16.3457C13.6395 7 12.6869 8.36425 12.6869 10.6585V12.3469H11V15.1592H12.6869V23.3197H16.0635Z" fill="url(#paint0_linear_5_2504)"/>
<mask id="mask0_5_2504" style="mask-type:luminance" maskUnits="userSpaceOnUse" x="11" y="7" width="8" height="17">
<path id="Exodus Landing Page_4" fill-rule="evenodd" clip-rule="evenodd" d="M16.0635 23.3197V15.1589H18.3162L18.6147 12.3466H16.0635L16.0673 10.9391C16.0673 10.2056 16.137 9.81257 17.1905 9.81257H18.5988V7H16.3457C13.6395 7 12.6869 8.36425 12.6869 10.6585V12.3469H11V15.1592H12.6869V23.3197H16.0635Z" fill="white"/>
</mask>
<g mask="url(#mask0_5_2504)">
<rect id="Exodus Landing Page_5" y="0.5" width="30" height="30" fill="url(#paint1_linear_5_2504)"/>
</g>
</g>
</g>
<defs>
<linearGradient id="paint0_linear_5_2504" x1="11" y1="15.1598" x2="18.6147" y2="15.1598" gradientUnits="userSpaceOnUse">
<stop stop-color="#2C2D5B"/>
<stop offset="1" stop-color="#9FA1FF"/>
</linearGradient>
<linearGradient id="paint1_linear_5_2504" x1="0" y1="15.5" x2="30" y2="15.5" gradientUnits="userSpaceOnUse">
<stop stop-color="#2C2D5B"/>
<stop offset="1" stop-color="#9FA1FF"/>
</linearGradient>
</defs>
</svg>
