<svg width="30" height="31" viewBox="0 0 30 31" fill="none" xmlns="http://www.w3.org/2000/svg">
<g id="Exodus Landing Page">
<g id="Exodus Landing Page_2">
<path id="Vector" d="M14.9977 12.4987C13.3451 12.4987 11.9965 13.8474 11.9965 15.5C11.9965 17.1526 13.3451 18.5013 14.9977 18.5013C16.6504 18.5013 17.999 17.1526 17.999 15.5C17.999 13.8474 16.6504 12.4987 14.9977 12.4987ZM23.9993 15.5C23.9993 14.2572 24.0106 13.0256 23.9408 11.785C23.871 10.344 23.5423 9.06515 22.4886 8.01144C21.4326 6.95548 20.156 6.62901 18.715 6.55921C17.4722 6.48941 16.2406 6.50067 15 6.50067C13.7572 6.50067 12.5256 6.48941 11.285 6.55921C9.84402 6.62901 8.56515 6.95773 7.51144 8.01144C6.45548 9.0674 6.12901 10.344 6.05921 11.785C5.98941 13.0278 6.00067 14.2594 6.00067 15.5C6.00067 16.7406 5.98941 17.9744 6.05921 19.215C6.12901 20.656 6.45773 21.9348 7.51144 22.9886C8.5674 24.0445 9.84402 24.371 11.285 24.4408C12.5278 24.5106 13.7594 24.4993 15 24.4993C16.2428 24.4993 17.4744 24.5106 18.715 24.4408C20.156 24.371 21.4349 24.0423 22.4886 22.9886C23.5445 21.9326 23.871 20.656 23.9408 19.215C24.0128 17.9744 23.9993 16.7428 23.9993 15.5ZM14.9977 20.1179C12.4423 20.1179 10.3799 18.0555 10.3799 15.5C10.3799 12.9445 12.4423 10.8821 14.9977 10.8821C17.5532 10.8821 19.6156 12.9445 19.6156 15.5C19.6156 18.0555 17.5532 20.1179 14.9977 20.1179ZM19.8047 11.7715C19.2081 11.7715 18.7263 11.2897 18.7263 10.693C18.7263 10.0963 19.2081 9.61452 19.8047 9.61452C20.4014 9.61452 20.8832 10.0963 20.8832 10.693C20.8834 10.8347 20.8556 10.975 20.8015 11.1059C20.7474 11.2369 20.6679 11.3558 20.5677 11.456C20.4676 11.5562 20.3486 11.6356 20.2177 11.6897C20.0867 11.7439 19.9464 11.7717 19.8047 11.7715Z" fill="black"/>
<mask id="mask0_5_2526" style="mask-type:luminance" maskUnits="userSpaceOnUse" x="6" y="6" width="19" height="19">
<path id="Exodus Landing Page_3" d="M14.9977 12.4987C13.3451 12.4987 11.9965 13.8474 11.9965 15.5C11.9965 17.1526 13.3451 18.5013 14.9977 18.5013C16.6504 18.5013 17.999 17.1526 17.999 15.5C17.999 13.8474 16.6504 12.4987 14.9977 12.4987ZM23.9993 15.5C23.9993 14.2572 24.0106 13.0256 23.9408 11.785C23.871 10.344 23.5423 9.06515 22.4886 8.01144C21.4326 6.95548 20.156 6.62901 18.715 6.55921C17.4722 6.48941 16.2406 6.50067 15 6.50067C13.7572 6.50067 12.5256 6.48941 11.285 6.55921C9.84402 6.62901 8.56515 6.95773 7.51144 8.01144C6.45548 9.0674 6.12901 10.344 6.05921 11.785C5.98941 13.0278 6.00067 14.2594 6.00067 15.5C6.00067 16.7406 5.98941 17.9744 6.05921 19.215C6.12901 20.656 6.45773 21.9348 7.51144 22.9886C8.5674 24.0445 9.84402 24.371 11.285 24.4408C12.5278 24.5106 13.7594 24.4993 15 24.4993C16.2428 24.4993 17.4744 24.5106 18.715 24.4408C20.156 24.371 21.4349 24.0423 22.4886 22.9886C23.5445 21.9326 23.871 20.656 23.9408 19.215C24.0128 17.9744 23.9993 16.7428 23.9993 15.5ZM14.9977 20.1179C12.4423 20.1179 10.3799 18.0555 10.3799 15.5C10.3799 12.9445 12.4423 10.8821 14.9977 10.8821C17.5532 10.8821 19.6156 12.9445 19.6156 15.5C19.6156 18.0555 17.5532 20.1179 14.9977 20.1179ZM19.8047 11.7715C19.2081 11.7715 18.7263 11.2897 18.7263 10.693C18.7263 10.0963 19.2081 9.61452 19.8047 9.61452C20.4014 9.61452 20.8832 10.0963 20.8832 10.693C20.8834 10.8347 20.8556 10.975 20.8015 11.1059C20.7474 11.2369 20.6679 11.3558 20.5677 11.456C20.4676 11.5562 20.3486 11.6356 20.2177 11.6897C20.0867 11.7439 19.9464 11.7717 19.8047 11.7715Z" fill="white"/>
</mask>
<g mask="url(#mask0_5_2526)">
<rect id="Exodus Landing Page_4" x="-1.97534" y="-2.47363" width="30" height="30" fill="url(#paint0_linear_5_2526)"/>
</g>
</g>
</g>
<defs>
<linearGradient id="paint0_linear_5_2526" x1="-1.97534" y1="12.5264" x2="28.0247" y2="12.5264" gradientUnits="userSpaceOnUse">
<stop stop-color="#2C2D5B"/>
<stop offset="1" stop-color="#9FA1FF"/>
</linearGradient>
</defs>
</svg>
