<svg width="30" height="31" viewBox="0 0 30 31" fill="none" xmlns="http://www.w3.org/2000/svg">
<g id="Exodus Landing Page">
<g id="Exodus Landing Page_2">
<path id="Exodus Landing Page_3" fill-rule="evenodd" clip-rule="evenodd" d="M14.5508 12.6922L14.5822 13.2112L14.0576 13.1477C12.148 12.904 10.4798 12.0778 9.06334 10.6902L8.37085 10.0017L8.19248 10.5101C7.81477 11.6435 8.05609 12.8405 8.843 13.6455C9.26269 14.0904 9.16826 14.154 8.4443 13.8891C8.19248 13.8044 7.97215 13.7408 7.95116 13.7726C7.87772 13.8468 8.12953 14.8107 8.32888 15.192C8.60168 15.7217 9.15777 16.2407 9.76631 16.5479L10.2804 16.7915L9.67188 16.8021C9.08432 16.8021 9.06334 16.8127 9.12629 17.0351C9.33613 17.7236 10.165 18.4545 11.0883 18.7723L11.7388 18.9947L11.1723 19.3337C10.3329 19.821 9.34663 20.0964 8.36036 20.1175C7.88821 20.1281 7.5 20.1705 7.5 20.2023C7.5 20.3082 8.78005 20.9014 9.52499 21.1344C11.7598 21.8229 14.4144 21.5264 16.4079 20.3506C17.8243 19.5138 19.2408 17.8507 19.9018 16.2407C20.2585 15.3827 20.6152 13.815 20.6152 13.0629C20.6152 12.5757 20.6467 12.5121 21.2343 11.9295C21.5805 11.5906 21.9058 11.2198 21.9687 11.1139C22.0737 10.9126 22.0632 10.9126 21.5281 11.0927C20.6362 11.4105 20.5103 11.3681 20.951 10.8915C21.2762 10.5525 21.6645 9.93813 21.6645 9.75806C21.6645 9.72628 21.5071 9.77924 21.3287 9.87458C21.1398 9.9805 20.7202 10.1394 20.4054 10.2347L19.8388 10.4148L19.3247 10.0652C19.0414 9.87458 18.6427 9.66273 18.4329 9.59917C17.8978 9.45087 17.0794 9.47206 16.5967 9.64154C15.2852 10.1182 14.4563 11.3469 14.5508 12.6922Z" fill="url(#paint0_linear_5_2511)"/>
<mask id="mask0_5_2511" style="mask-type:luminance" maskUnits="userSpaceOnUse" x="7" y="9" width="16" height="13">
<path id="Exodus Landing Page_4" fill-rule="evenodd" clip-rule="evenodd" d="M14.5508 12.6922L14.5822 13.2112L14.0576 13.1477C12.148 12.904 10.4798 12.0778 9.06334 10.6902L8.37085 10.0017L8.19248 10.5101C7.81477 11.6435 8.05609 12.8405 8.843 13.6455C9.26269 14.0904 9.16826 14.154 8.4443 13.8891C8.19248 13.8044 7.97215 13.7408 7.95116 13.7726C7.87772 13.8468 8.12953 14.8107 8.32888 15.192C8.60168 15.7217 9.15777 16.2407 9.76631 16.5479L10.2804 16.7915L9.67188 16.8021C9.08432 16.8021 9.06334 16.8127 9.12629 17.0351C9.33613 17.7236 10.165 18.4545 11.0883 18.7723L11.7388 18.9947L11.1723 19.3337C10.3329 19.821 9.34663 20.0964 8.36036 20.1175C7.88821 20.1281 7.5 20.1705 7.5 20.2023C7.5 20.3082 8.78005 20.9014 9.52499 21.1344C11.7598 21.8229 14.4144 21.5264 16.4079 20.3506C17.8243 19.5138 19.2408 17.8507 19.9018 16.2407C20.2585 15.3827 20.6152 13.815 20.6152 13.0629C20.6152 12.5757 20.6467 12.5121 21.2343 11.9295C21.5805 11.5906 21.9058 11.2198 21.9687 11.1139C22.0737 10.9126 22.0632 10.9126 21.5281 11.0927C20.6362 11.4105 20.5103 11.3681 20.951 10.8915C21.2762 10.5525 21.6645 9.93813 21.6645 9.75806C21.6645 9.72628 21.5071 9.77924 21.3287 9.87458C21.1398 9.9805 20.7202 10.1394 20.4054 10.2347L19.8388 10.4148L19.3247 10.0652C19.0414 9.87458 18.6427 9.66273 18.4329 9.59917C17.8978 9.45087 17.0794 9.47206 16.5967 9.64154C15.2852 10.1182 14.4563 11.3469 14.5508 12.6922Z" fill="white"/>
</mask>
<g mask="url(#mask0_5_2511)">
<rect id="Exodus Landing Page_5" y="0.5" width="30" height="30" fill="url(#paint1_linear_5_2511)"/>
</g>
</g>
</g>
<defs>
<linearGradient id="paint0_linear_5_2511" x1="7.5" y1="15.5" x2="22.021" y2="15.5" gradientUnits="userSpaceOnUse">
<stop stop-color="#2C2D5B"/>
<stop offset="1" stop-color="#9FA1FF"/>
</linearGradient>
<linearGradient id="paint1_linear_5_2511" x1="0" y1="15.5" x2="30" y2="15.5" gradientUnits="userSpaceOnUse">
<stop stop-color="#2C2D5B"/>
<stop offset="1" stop-color="#9FA1FF"/>
</linearGradient>
</defs>
</svg>
