<svg width="30" height="31" viewBox="0 0 30 31" fill="none" xmlns="http://www.w3.org/2000/svg">
<g id="Exodus Landing Page">
<g id="Exodus Landing Page_2">
<path id="Vector" d="M6.00361 24.5L7.22041 20.0288C6.41864 18.6544 5.9974 17.0912 6.00001 15.5C6.00001 10.5293 10.0293 6.5 15 6.5C19.9707 6.5 24 10.5293 24 15.5C24 20.4707 19.9707 24.5 15 24.5C13.4095 24.5026 11.847 24.0816 10.473 23.2805L6.00361 24.5ZM11.7519 11.2772C11.6357 11.2844 11.5221 11.315 11.418 11.3672C11.3204 11.4225 11.2313 11.4916 11.1534 11.5724C11.0454 11.6741 10.9842 11.7623 10.9185 11.8478C10.5859 12.2807 10.407 12.8121 10.41 13.358C10.4118 13.799 10.527 14.2283 10.707 14.6297C11.0751 15.4415 11.6808 16.301 12.4809 17.0975C12.6735 17.2892 12.8616 17.4818 13.0641 17.6609C14.0572 18.5352 15.2405 19.1657 16.5201 19.5023L17.0322 19.5806C17.1987 19.5896 17.3652 19.577 17.5326 19.5689C17.7947 19.5554 18.0507 19.4844 18.2823 19.361C18.4002 19.3003 18.5152 19.2342 18.627 19.163C18.627 19.163 18.6657 19.1378 18.7395 19.082C18.861 18.992 18.9357 18.9281 19.0365 18.8228C19.1112 18.7454 19.176 18.6545 19.2255 18.551C19.2957 18.4043 19.3659 18.1244 19.3947 17.8913C19.4163 17.7131 19.41 17.6159 19.4073 17.5556C19.4037 17.4593 19.3236 17.3594 19.2363 17.3171L18.7125 17.0822C18.7125 17.0822 17.9295 16.7411 17.4516 16.5233C17.4012 16.5013 17.3472 16.4888 17.2923 16.4864C17.2307 16.4801 17.1685 16.487 17.1098 16.5067C17.0512 16.5264 16.9974 16.5585 16.9521 16.6007V16.5989C16.9476 16.5989 16.8873 16.6502 16.2366 17.4386C16.1993 17.4888 16.1478 17.5267 16.0888 17.5475C16.0298 17.5684 15.966 17.5712 15.9054 17.5556C15.8468 17.5399 15.7893 17.5201 15.7335 17.4962C15.6219 17.4494 15.5832 17.4314 15.5067 17.3981L15.5022 17.3963C14.9873 17.1715 14.5106 16.8679 14.0892 16.4963C13.9758 16.3973 13.8705 16.2893 13.7625 16.1849C13.4084 15.8458 13.0999 15.4622 12.8445 15.0437L12.7914 14.9582C12.7533 14.9007 12.7224 14.8388 12.6996 14.7737C12.6654 14.6414 12.7545 14.5352 12.7545 14.5352C12.7545 14.5352 12.9732 14.2958 13.0749 14.1662C13.1596 14.0585 13.2386 13.9464 13.3116 13.8305C13.4178 13.6595 13.4511 13.484 13.3953 13.3481C13.1433 12.7325 12.8823 12.1196 12.6141 11.5112C12.561 11.3906 12.4035 11.3042 12.2604 11.2871C12.2118 11.2817 12.1632 11.2763 12.1146 11.2727C11.9937 11.2667 11.8726 11.2679 11.7519 11.2763V11.2772Z" fill="black"/>
<mask id="mask0_5_2518" style="mask-type:luminance" maskUnits="userSpaceOnUse" x="6" y="6" width="18" height="19">
<path id="Exodus Landing Page_3" d="M6.00361 24.5L7.22041 20.0288C6.41864 18.6544 5.9974 17.0912 6.00001 15.5C6.00001 10.5293 10.0293 6.5 15 6.5C19.9707 6.5 24 10.5293 24 15.5C24 20.4707 19.9707 24.5 15 24.5C13.4095 24.5026 11.847 24.0816 10.473 23.2805L6.00361 24.5ZM11.7519 11.2772C11.6357 11.2844 11.5221 11.315 11.418 11.3672C11.3204 11.4225 11.2313 11.4916 11.1534 11.5724C11.0454 11.6741 10.9842 11.7623 10.9185 11.8478C10.5859 12.2807 10.407 12.8121 10.41 13.358C10.4118 13.799 10.527 14.2283 10.707 14.6297C11.0751 15.4415 11.6808 16.301 12.4809 17.0975C12.6735 17.2892 12.8616 17.4818 13.0641 17.6609C14.0572 18.5352 15.2405 19.1657 16.5201 19.5023L17.0322 19.5806C17.1987 19.5896 17.3652 19.577 17.5326 19.5689C17.7947 19.5554 18.0507 19.4844 18.2823 19.361C18.4002 19.3003 18.5152 19.2342 18.627 19.163C18.627 19.163 18.6657 19.1378 18.7395 19.082C18.861 18.992 18.9357 18.9281 19.0365 18.8228C19.1112 18.7454 19.176 18.6545 19.2255 18.551C19.2957 18.4043 19.3659 18.1244 19.3947 17.8913C19.4163 17.7131 19.41 17.6159 19.4073 17.5556C19.4037 17.4593 19.3236 17.3594 19.2363 17.3171L18.7125 17.0822C18.7125 17.0822 17.9295 16.7411 17.4516 16.5233C17.4012 16.5013 17.3472 16.4888 17.2923 16.4864C17.2307 16.4801 17.1685 16.487 17.1098 16.5067C17.0512 16.5264 16.9974 16.5585 16.9521 16.6007V16.5989C16.9476 16.5989 16.8873 16.6502 16.2366 17.4386C16.1993 17.4888 16.1478 17.5267 16.0888 17.5475C16.0298 17.5684 15.966 17.5712 15.9054 17.5556C15.8468 17.5399 15.7893 17.5201 15.7335 17.4962C15.6219 17.4494 15.5832 17.4314 15.5067 17.3981L15.5022 17.3963C14.9873 17.1715 14.5106 16.8679 14.0892 16.4963C13.9758 16.3973 13.8705 16.2893 13.7625 16.1849C13.4084 15.8458 13.0999 15.4622 12.8445 15.0437L12.7914 14.9582C12.7533 14.9007 12.7224 14.8388 12.6996 14.7737C12.6654 14.6414 12.7545 14.5352 12.7545 14.5352C12.7545 14.5352 12.9732 14.2958 13.0749 14.1662C13.1596 14.0585 13.2386 13.9464 13.3116 13.8305C13.4178 13.6595 13.4511 13.484 13.3953 13.3481C13.1433 12.7325 12.8823 12.1196 12.6141 11.5112C12.561 11.3906 12.4035 11.3042 12.2604 11.2871C12.2118 11.2817 12.1632 11.2763 12.1146 11.2727C11.9937 11.2667 11.8726 11.2679 11.7519 11.2763V11.2772Z" fill="white"/>
</mask>
<g mask="url(#mask0_5_2518)">
<rect id="Exodus Landing Page_4" x="1" y="1.5" width="30" height="30" fill="url(#paint0_linear_5_2518)"/>
</g>
</g>
</g>
<defs>
<linearGradient id="paint0_linear_5_2518" x1="1" y1="16.5" x2="31" y2="16.5" gradientUnits="userSpaceOnUse">
<stop stop-color="#2C2D5B"/>
<stop offset="1" stop-color="#9FA1FF"/>
</linearGradient>
</defs>
</svg>
